<?xml version="1.0" encoding="UTF-8"?>
<svg width="20px" height="15px" viewBox="0 0 20 15" version="1.1" xmlns="http://www.w3.org/2000/svg" xmlns:xlink="http://www.w3.org/1999/xlink">
    <title>index-announcement-icon</title>
    <g id="icon-set最新整理" stroke="none" stroke-width="1" fill="none" fill-rule="evenodd">
        <g id="images/h5/icon-set/index-theme-icon" transform="translate(-35.000000, -152.000000)" fill="#FFFFFF" fill-rule="nonzero">
            <g id="index-announcement-icon" transform="translate(35.000000, 152.000000)">
                <path d="M18.879497,6.83764478 L17.1700858,6.83764478 C16.8554022,6.83764478 16.600282,7.0927649 16.600282,7.40744851 C16.600282,7.72213212 16.8554022,7.97725224 17.1700858,7.97725224 L18.879497,7.97725224 C19.1941806,7.97725224 19.4493007,7.72213212 19.4493007,7.40744851 C19.4493007,7.0927649 19.1941806,6.83764478 18.879497,6.83764478 Z" id="Path"/>
                <path d="M18.1428167,10.4233817 L17.0032093,9.28377421 C16.7807199,9.06128485 16.4199202,9.06128485 16.1973928,9.28377421 C15.9748275,9.50626357 15.9748275,9.8670633 16.1973928,10.0895906 L17.3370003,11.2291981 C17.5594896,11.4517255 17.9203274,11.4517255 18.1428167,11.2291981 C18.3653441,11.0066708 18.3653441,10.645909 18.1428167,10.4233817 Z" id="Path"/>
                <path d="M18.1427787,3.58573689 C17.9202894,3.36324753 17.5594896,3.36324753 17.3369623,3.58573689 L16.1973548,4.72534436 C15.9748275,4.94787171 15.9748275,5.30863344 16.1973548,5.53116079 C16.4198822,5.75368815 16.7806819,5.75365016 17.0031713,5.53116079 L18.1427787,4.39155333 C18.3653061,4.16902598 18.3653061,3.80826425 18.1427787,3.58573689 Z" id="Path"/>
                <path d="M13.1814597,0 C12.3255765,0 11.6146893,0.632292207 11.4911559,1.45429107 L10.9713809,1.97406603 C10.0667225,2.87872442 8.73444543,3.41882239 7.40744851,3.41882239 L3.98862612,3.41882239 C3.24579199,3.41882239 2.61243615,3.89521629 2.37722117,4.55842985 L2.27921493,4.55842985 C1.02245582,4.55842985 0,5.58088567 0,6.83764478 C0,8.09440389 1.02245582,9.1168597 2.27921493,9.1168597 L2.37722117,9.1168597 C2.54918793,9.60172469 2.9339574,9.98649416 3.41882239,10.1584609 L3.41882239,13.1054858 C3.41882239,14.0480552 4.18570224,14.814897 5.12827157,14.814897 C6.07080292,14.814897 6.83764478,14.0480552 6.83764478,13.1054858 L6.83764478,10.2564672 L7.40744851,10.2564672 C8.73440744,10.2564672 10.0666845,10.7965651 10.9713809,11.7012235 L11.4911559,12.2209985 C11.6146893,13.0429594 12.3256144,13.6752896 13.1814976,13.6752896 C14.124029,13.6752896 14.8908708,12.9084477 14.8908708,11.9658784 L14.8908708,1.70941119 C14.8908708,0.766841862 14.124029,0 13.1814597,0 Z M2.27921493,7.97725224 C1.65083537,7.97725224 1.13960746,7.46602433 1.13960746,6.83764478 C1.13960746,6.20926522 1.65083537,5.69803731 2.27921493,5.69803731 L2.27921493,7.97725224 Z M5.69803731,13.1054858 C5.69803731,13.4196756 5.44242336,13.6752896 5.12823358,13.6752896 C4.81404381,13.6752896 4.55842985,13.4196756 4.55842985,13.1054858 L4.55842985,10.2564672 L5.69803731,10.2564672 L5.69803731,13.1054858 Z M6.83764478,9.1168597 L3.98862612,9.1168597 C3.67443634,9.1168597 3.41882239,8.86124575 3.41882239,8.54705597 L3.41882239,5.12823358 C3.41882239,4.81404381 3.67443634,4.55842985 3.98862612,4.55842985 L6.83764478,4.55842985 L6.83764478,9.1168597 Z M11.4720485,10.6114929 C10.509422,9.77836385 9.27177034,9.26071615 7.97345355,9.14269081 L7.97349154,4.53256076 C9.27177034,4.4145734 10.509422,3.89692571 11.4720485,3.06375869 L11.4720485,10.6114929 Z M13.7512634,11.9658784 C13.7512634,12.2800681 13.4956494,12.5356821 13.1814976,12.5356821 L13.1814597,12.5356821 C12.8672699,12.5356821 12.6116559,12.2800681 12.6116559,11.9658784 L12.6116559,1.70941119 C12.6116559,1.39522142 12.8672699,1.13960746 13.1814976,1.13960746 C13.4956494,1.13960746 13.7512634,1.39522142 13.7512634,1.70941119 L13.7512634,11.9658784 Z" id="Shape"/>
            </g>
        </g>
    </g>
</svg>